<svg xmlns="http://www.w3.org/2000/svg" width="24" height="24" viewBox="0 0 24 24" fill="none" stroke="currentColor" stroke-width="2" stroke-linecap="round" stroke-linejoin="round" class="lucide lucide-message-circle"><path d="M7.9 20A9 9 0 1 0 4 16.1L2 22Z" fill="#25D366"/><path d="M8 12.5c-1.2 0-3-1-3-3.5s1.8-3.5 3-3.5c.5 0 1 .2 1.4.4l.2.1c.4.2.8.5 1.2.9.3.4.5.8.5 1.2s0 1-.2 1.4l-.1.2c-.2.4-.5.8-.9 1.2-.4.3-.8.5-1.2.5zm4.4-4.8c-.3 0-.6.1-.8.2s-.5.3-.6.5c-.2.2-.3.5-.3.8s.1.6.2.8c.2.2.3.5.5.6.2.2.5.3.8.3h.2c.3 0 .6-.1.8-.2.2-.2.5-.3.6-.5s.3-.5.3-.8c0-.3-.1-.6-.2-.8-.2-.2-.3-.5-.5-.6-.2-.2-.5-.3-.8-.3h-.2z" fill="#fff"/></svg>
